<svg width="1920" height="1080" viewBox="0 0 1920 1080" xmlns="http://www.w3.org/2000/svg">
  <defs>
    <linearGradient id="skyGradient" x1="0%" y1="0%" x2="0%" y2="100%">
      <stop offset="0%" style="stop-color:#1E40AF;stop-opacity:1" />
      <stop offset="50%" style="stop-color:#3B82F6;stop-opacity:1" />
      <stop offset="100%" style="stop-color:#60A5FA;stop-opacity:1" />
    </linearGradient>
    <filter id="glow" x="-50%" y="-50%" width="200%" height="200%">
      <feGaussianBlur stdDeviation="3" result="coloredBlur"/>
      <feMerge> 
        <feMergeNode in="coloredBlur"/>
        <feMergeNode in="SourceGraphic"/>
      </feMerge>
    </filter>
  </defs>
  
  <!-- Sky Background -->
  <rect width="1920" height="1080" fill="url(#skyGradient)"/>
  
  <!-- Clouds -->
  <ellipse cx="300" cy="200" rx="80" ry="30" fill="rgba(255,255,255,0.3)"/>
  <ellipse cx="600" cy="150" rx="60" ry="25" fill="rgba(255,255,255,0.2)"/>
  <ellipse cx="1200" cy="180" rx="100" ry="40" fill="rgba(255,255,255,0.25)"/>
  <ellipse cx="1600" cy="120" rx="70" ry="30" fill="rgba(255,255,255,0.2)"/>
  
  <!-- Buildings Silhouette -->
  <rect x="0" y="600" width="200" height="480" fill="#1F2937" opacity="0.8"/>
  <rect x="180" y="500" width="180" height="580" fill="#374151" opacity="0.8"/>
  <rect x="340" y="550" width="160" height="530" fill="#1F2937" opacity="0.8"/>
  <rect x="480" y="450" width="200" height="630" fill="#374151" opacity="0.8"/>
  <rect x="660" y="520" width="140" height="560" fill="#1F2937" opacity="0.8"/>
  <rect x="780" y="400" width="220" height="680" fill="#374151" opacity="0.8"/>
  <rect x="980" y="480" width="160" height="600" fill="#1F2937" opacity="0.8"/>
  <rect x="1120" y="420" width="180" height="660" fill="#374151" opacity="0.8"/>
  <rect x="1280" y="550" width="200" height="530" fill="#1F2937" opacity="0.8"/>
  <rect x="1460" y="470" width="160" height="610" fill="#374151" opacity="0.8"/>
  <rect x="1600" y="520" width="180" height="560" fill="#1F2937" opacity="0.8"/>
  <rect x="1760" y="600" width="160" height="480" fill="#374151" opacity="0.8"/>
  
  <!-- Window Lights -->
  <rect x="50" y="650" width="15" height="20" fill="#FCD34D" opacity="0.8" filter="url(#glow)"/>
  <rect x="80" y="700" width="15" height="20" fill="#FCD34D" opacity="0.8" filter="url(#glow)"/>
  <rect x="120" y="680" width="15" height="20" fill="#60A5FA" opacity="0.8" filter="url(#glow)"/>
  
  <rect x="250" y="550" width="15" height="20" fill="#FCD34D" opacity="0.8" filter="url(#glow)"/>
  <rect x="280" y="600" width="15" height="20" fill="#60A5FA" opacity="0.8" filter="url(#glow)"/>
  <rect x="310" y="650" width="15" height="20" fill="#FCD34D" opacity="0.8" filter="url(#glow)"/>
  
  <rect x="560" y="480" width="15" height="20" fill="#60A5FA" opacity="0.8" filter="url(#glow)"/>
  <rect x="590" y="530" width="15" height="20" fill="#FCD34D" opacity="0.8" filter="url(#glow)"/>
  <rect x="620" y="580" width="15" height="20" fill="#60A5FA" opacity="0.8" filter="url(#glow)"/>
  
  <rect x="850" y="450" width="15" height="20" fill="#FCD34D" opacity="0.8" filter="url(#glow)"/>
  <rect x="880" y="500" width="15" height="20" fill="#60A5FA" opacity="0.8" filter="url(#glow)"/>
  <rect x="920" y="550" width="15" height="20" fill="#FCD34D" opacity="0.8" filter="url(#glow)"/>
  
  <rect x="1200" y="470" width="15" height="20" fill="#60A5FA" opacity="0.8" filter="url(#glow)"/>
  <rect x="1230" y="520" width="15" height="20" fill="#FCD34D" opacity="0.8" filter="url(#glow)"/>
  <rect x="1350" y="600" width="15" height="20" fill="#60A5FA" opacity="0.8" filter="url(#glow)"/>
  
  <rect x="1530" y="520" width="15" height="20" fill="#FCD34D" opacity="0.8" filter="url(#glow)"/>
  <rect x="1680" y="570" width="15" height="20" fill="#60A5FA" opacity="0.8" filter="url(#glow)"/>
  <rect x="1810" y="650" width="15" height="20" fill="#FCD34D" opacity="0.8" filter="url(#glow)"/>
  
  <!-- Stars -->
  <circle cx="400" cy="80" r="2" fill="white" opacity="0.8"/>
  <circle cx="800" cy="120" r="1.5" fill="white" opacity="0.6"/>
  <circle cx="1400" cy="60" r="2" fill="white" opacity="0.8"/>
  <circle cx="1800" cy="100" r="1" fill="white" opacity="0.7"/>
</svg>