<?xml version="1.0" encoding="utf-8"?>
<!-- Generator: Adobe Illustrator 19.2.0, SVG Export Plug-In . SVG Version: 6.00 Build 0)  -->
<svg version="1.1" id="Capa_1" xmlns="http://www.w3.org/2000/svg" xmlns:xlink="http://www.w3.org/1999/xlink" x="0px" y="0px"
	 viewBox="0 0 100 40" style="enable-background:new 0 0 100 40;" xml:space="preserve">
<style type="text/css">
	.st0{fill:#8BC4E7;}
	.st1{fill:#58585A;}
</style>
<g>
	<path class="st0" d="M11.5,9.5c0,0,0.7-0.6,1.3-0.6c0,0,0.6-0.1,1.5,0.6l6.3,3.8c0,0,1.1,0.8,0,1.1h-12c0,0-1.4-0.2-1.4,1.1
		c0,0-0.1,1,1.4,1H18c0,0,2.9-0.1,4.9,2l1.4,1.2c0,0,0.6,0.9-0.2,1.5c0,0-0.7,0.8-1.6-0.1l-1.3-1.2c0,0-0.9-1.1-2.6-1.1H6.9
		c0,0-2.2-0.1-2.8-1.5c0,0-0.9-1.7,1.3-3.4L11.5,9.5z"/>
	<path class="st0" d="M13.8,30.5c0,0-0.7,0.6-1.3,0.6c0,0-0.6,0.1-1.5-0.6l-6.3-3.8c0,0-1.1-0.8,0-1.1h12c0,0,1.4,0.2,1.4-1.1
		c0,0,0.1-1-1.4-1H7.3c0,0-2.9,0.1-4.9-2L1,20.3c0,0-0.6-0.9,0.2-1.5c0,0,0.7-0.8,1.6,0.1l1.3,1.2c0,0,0.9,1.1,2.6,1.1h11.6
		c0,0,2.2,0.1,2.8,1.5c0,0,0.9,1.7-1.3,3.4L13.8,30.5z"/>
	<path class="st1" d="M37.4,25.9c-1.1,0.7-2.3,1-3.8,1c-1.5,0-2.7-0.3-3.7-1c-1.3-0.8-2-2.1-2-3.8h2.6c0,0.9,0.4,1.5,1,1.9l0,0
		c0.6,0.3,1.3,0.4,2.2,0.4s1.6-0.1,2.2-0.4c0.7-0.3,1-0.8,1-1.4c0-0.7-0.6-1.3-1.9-1.6l0,0c-0.4-0.1-0.7-0.1-1-0.2
		c-0.4-0.1-0.7-0.2-1.1-0.2l0,0c-0.4-0.1-0.7-0.2-1.1-0.2s-0.7-0.2-1.1-0.2c-1.7-0.6-2.6-1.9-2.6-3.7c0-1.4,0.6-2.4,1.9-3.3
		c1.1-0.7,2.2-1.1,3.6-1.1c1.3,0,2.6,0.4,3.6,1.1c1.2,0.8,1.9,2.1,1.9,3.7h-2.6c0-0.9-0.3-1.5-0.9-1.8c-0.5-0.3-1.2-0.4-2-0.4
		c-0.7,0-1.4,0.2-1.9,0.4c-0.6,0.3-0.9,0.8-0.9,1.3c0,0.8,0.6,1.3,1.9,1.6c0.4,0.1,0.7,0.2,1,0.2c0.4,0.1,0.7,0.2,1,0.2
		c0.4,0.1,0.7,0.2,1,0.2c0.3,0.1,0.7,0.1,1,0.2c1.8,0.7,2.6,1.9,2.6,3.7C39.4,23.9,38.7,25.1,37.4,25.9z"/>
	<path class="st1" d="M53.9,24.7c-1.5,1.5-3.2,2.2-5.2,2.2c-2.1,0-3.8-0.7-5.3-2.2c-1.5-1.5-2.2-3.2-2.2-5.2s0.7-3.8,2.2-5.2
		c1.5-1.5,3.2-2.2,5.3-2.2c2.1,0,3.8,0.7,5.2,2.2c1.5,1.5,2.2,3.2,2.2,5.2S55.4,23.3,53.9,24.7z M52.1,16c-0.9-0.9-2.1-1.4-3.4-1.4
		c-1.3,0-2.5,0.5-3.4,1.4c-0.9,0.9-1.5,2.1-1.5,3.4c0,1.3,0.5,2.4,1.5,3.4c0.9,0.9,2.1,1.5,3.4,1.5c1.3,0,2.4-0.5,3.4-1.5
		c0.9-0.9,1.4-2.1,1.4-3.4C53.5,18.1,53,17,52.1,16z"/>
	<path class="st1" d="M58.2,26.6V12.4h2.6V24h6v2.6H58.2z"/>
	<path class="st1" d="M77.8,26.6l-6.6-9.3v9.3h-2.6V12.4H71l6.6,9.3v-9.3h2.6v14.2H77.8z"/>
	<path class="st1" d="M82.6,26.6V12.4h2.6v14.2H82.6z"/>
	<path class="st1" d="M95.8,26.6L91.6,20l-1.3,1.3v5.2h-2.6V12.4h2.6v5.3l5.3-5.3h3.7l-5.8,5.8l5.5,8.4L95.8,26.6L95.8,26.6z"/>
</g>
</svg>
